{"title":"Welcome.to.Me.2014.1080p.BluRay.REMUX.AVC.TrueHD.5.1-RARBG","uid":11955174,"size":15076078766,"categoryP":"video","categoryS":"hd___movies","magnet":"?xt=urn:btih:d67c82804335a97305dfd3c32e5ad511fb2fef1f&amp;dn=Welcome.to.Me.2014.1080p.BluRay.REMUX.AVC.TrueHD.5.1-RARBG&amp;tr=udp%3A%2F%2Ftracker.openbittorrent.com%3A80&amp;tr=udp%3A%2F%2Fopen.demonii.com%3A1337&amp;tr=udp%3A%2F%2Ftracker.coppersurfer.tk%3A6969&amp;tr=udp%3A%2F%2Fexodus.desync.com%3A6969","seeders":0,"leechers":1,"uploader":"vickey1992","files":4,"time":1432375514,"description":"Video\nID                                       : 1\nFormat                                   : AVC\nFormat/Info                              : Advanced Video Codec\nFormat profile                           : &lt;a class=&quot;__cf_email__&quot; href=&quot;/cdn-cgi/l/email-protection&quot; data-cfemail=&quot;b5fddcd2ddf5f9819b84&quot;&gt;[email&amp;#160;protected]&lt;/a&gt;&lt;script data-cfhash='f9e31' type=&quot;text/javascript&quot;&gt;\n/* &lt;![CDATA[ */!function(){try{var t=&quot;currentScript&quot;in document?document.currentScript:function(){for(var t=document.getElementsByTagName(&quot;script&quot;),e=t.length;e--;)if(t[e].getAttribute(&quot;data-cfhash&quot;))return t[e]}();if(t&amp;&amp;t.previousSibling){var e,r,n,i,c=t.previousSibling,a=c.getAttribute(&quot;data-cfemail&quot;);if(a){for(e=&quot;&quot;,r=parseInt(a.substr(0,2),16),n=2;a.length-n;n+=2)i=parseInt(a.substr(n,2),16)^r,e+=String.fromCharCode(i);e=document.createTextNode(e),c.parentNode.replaceChild(e,c)}t.parentNode.removeChild(t);}}catch(u){}}()/* ]]&gt; */&lt;/script&gt;\nFormat settings, CABAC                   : Yes\nFormat settings, ReFrames                : 4 frames\nCodec ID                                 : V_MPEG4/ISO/AVC\nDuration                                 : 1h 27mn\nBit rate mode                            : Variable\nMaximum bit rate                         : 35.0 Mbps\nWidth                                    : 1 920 pixels\nHeight                                   : 1 080 pixels\nDisplay aspect ratio                     : 16:9\nFrame rate mode                          : Constant\nFrame rate                               : 23.976 fps\nColor space                              : YUV\nChroma subsampling                       : 4:2:0\nBit depth                                : 8 bits\nScan type                                : Progressive\nTitle                                    : Welcome.to.Me.2014.1080p.BluRay.REMUX.AVC.TrueHD.5.1-RARBG\nLanguage                                 : English\nDefault                                  : No\nForced                                   : No\n\nAudio #1\nID                                       : 2\nFormat                                   : TrueHD\nCodec ID                                 : A_TRUEHD\nDuration                                 : 1h 27mn\nBit rate mode                            : Variable\nMaximum bit rate                         : 4 020 Kbps\nChannel(s)                               : 6 channels\nChannel positions                        : Front: L C R, Side: L R, LFE\nSampling rate                            : 48.0 KHz\nBit depth                                : 24 bits\nCompression mode                         : Lossless\nTitle                                    : Welcome.to.Me.2014.1080p.BluRay.REMUX.AVC.TrueHD.5.1-RARBG\nLanguage                                 : English\nDefault                                  : Yes\nForced                                   : No\n\nAudio #2\nID                                       : 3\nFormat                                   : AC-3\nFormat/Info                              : Audio Coding 3\nMode extension                           : CM (complete main)\nFormat settings, Endianness              : Big\nCodec ID                                 : A_AC3\nDuration                                 : 1h 27mn\nBit rate mode                            : Constant\nBit rate                                 : 448 Kbps\nChannel(s)                               : 6 channels\nChannel positions                        : Front: L C R, Side: L R, LFE\nSampling rate                            : 48.0 KHz\nBit depth                                : 16 bits\nCompression mode                         : Lossy\nStream size                              : 279 MiB (2%)\nTitle                                    : Welcome.to.Me.2014.1080p.BluRay.REMUX.AVC.TrueHD.5.1-RARBG\nLanguage                                 : English\nDefault                                  : No\nForced                                   : No\n\nAudio #3\nID                                       : 4\nFormat                                   : AC-3\nFormat/Info                              : Audio Coding 3\nMode extension                           : CM (complete main)\nFormat settings, Endianness              : Big\nCodec ID                                 : A_AC3\nDuration                                 : 1h 27mn\nBit rate mode                            : Constant\nBit rate                                 : 192 Kbps\nChannel(s)                               : 2 channels\nChannel positions                        : Front: L R\nSampling rate                            : 48.0 KHz\nBit depth                                : 16 bits\nCompression mode                         : Lossy\nStream size                              : 120 MiB (1%)\nTitle                                    : Welcome.to.Me.2014.1080p.BluRay.REMUX.AVC.TrueHD.5.1-RARBG\nLanguage                                 : English\nDefault                                  : No\nForced                                   : No\n\nText #1\nID                                       : 5\nFormat                                   : PGS\nMuxing mode                              : zlib\nCodec ID                                 : S_HDMV/PGS\nCodec ID/Info                            : The same subtitle format used on BDs/HD-DVDs\nLanguage                                 : English\nDefault                                  : No\nForced                                   : No\n\nText #2\nID                                       : 6\nFormat                                   : PGS\nMuxing mode                              : zlib\nCodec ID                                 : S_HDMV/PGS\nCodec ID/Info                            : The same subtitle format used on BDs/HD-DVDs\nLanguage                                 : Spanish\nDefault                                  : No\nForced                                   : No\n\nMenu\n00:00:00.000                             : en:Chapter 00\n00:06:57.625                             : en:Chapter 01\n00:14:35.249                             : en:Chapter 02\n00:23:20.482                             : en:Chapter 03\n00:29:38.485                             : en:Chapter 04\n00:38:05.283                             : en:Chapter 05\n00:45:01.699                             : en:Chapter 06\n00:52:49.833                             : en:Chapter 07\n01:00:18.364                             : en:Chapter 08\n01:07:45.770                             : en:Chapter 09\n01:12:26.383                             : en:Chapter 10\n01:22:32.948                             : en:Chapter 11\n\n\n\n\nNotes:\nGreetz to all!","torrent":{"xt":"urn:btih:d67c82804335a97305dfd3c32e5ad511fb2fef1f","amp;dn":"Welcome.to.Me.2014.1080p.BluRay.REMUX.AVC.TrueHD.5.1-RARBG","amp;tr":["udp%3A%2F%2Ftracker.openbittorrent.com%3A80","udp%3A%2F%2Fopen.demonii.com%3A1337","udp%3A%2F%2Ftracker.coppersurfer.tk%3A6969","udp%3A%2F%2Fexodus.desync.com%3A6969"],"infoHash":"d67c82804335a97305dfd3c32e5ad511fb2fef1f","infoHashBuffer":{"type":"Buffer","data":[214,124,130,128,67,53,169,115,5,223,211,195,46,90,213,17,251,47,239,31]},"announce":[],"urlList":[]}}